<?xml version="1.0" encoding="iso-8859-1"?>
<!-- Generator: Adobe Illustrator 19.0.0, SVG Export Plug-In . SVG Version: 6.00 Build 0)  -->
<svg version="1.1" id="Capa_1" xmlns="http://www.w3.org/2000/svg" xmlns:xlink="http://www.w3.org/1999/xlink" x="0px" y="0px"
	 viewBox="0 0 477.867 477.867" style="enable-background:new 0 0 477.867 477.867;" xml:space="preserve">
<g>
	<g>
		<path d="M238.933,0C107.033,0.141,0.141,107.033,0,238.933v187.733c0,28.277,22.923,51.2,51.2,51.2h68.267
			c9.426,0,17.067-7.641,17.067-17.067V290.133c0-9.426-7.641-17.067-17.067-17.067H51.2c-5.827,0.057-11.601,1.119-17.067,3.14
			v-37.274c0-113.108,91.692-204.8,204.8-204.8s204.8,91.692,204.8,204.8v37.274c-5.466-2.021-11.239-3.084-17.067-3.14H358.4
			c-9.426,0-17.067,7.641-17.067,17.067V460.8c0,9.426,7.641,17.067,17.067,17.067h68.267c28.277,0,51.2-22.923,51.2-51.2V238.933
			C477.726,107.033,370.834,0.141,238.933,0z M51.2,307.2h51.2v136.533H51.2c-9.426,0-17.067-7.641-17.067-17.067v-102.4
			C34.133,314.841,41.774,307.2,51.2,307.2z M443.733,426.667c0,9.426-7.641,17.067-17.067,17.067h-51.2V307.2h51.2
			c9.426,0,17.067,7.641,17.067,17.067V426.667z"/>
	</g>
</g>
<g>
</g>
<g>
</g>
<g>
</g>
<g>
</g>
<g>
</g>
<g>
</g>
<g>
</g>
<g>
</g>
<g>
</g>
<g>
</g>
<g>
</g>
<g>
</g>
<g>
</g>
<g>
</g>
<g>
</g>
</svg>
